<svg width="71" height="82" viewBox="0 0 71 82" fill="none" xmlns="http://www.w3.org/2000/svg">
<path d="M69.1778 58.5834C64.8568 53.8948 59.6132 50.153 53.7773 47.5938C47.9413 45.0346 41.6394 43.7134 35.2685 43.7134C28.8976 43.7134 22.5957 45.0346 16.7598 47.5938C10.9238 50.153 5.68023 53.8948 1.35929 58.5834C0.692171 59.3222 0.318997 60.2805 0.310547 61.2765V77.435C0.324687 78.4971 0.75589 79.5108 1.51081 80.2567C2.26573 81.0027 3.28363 81.4209 4.34416 81.4208H66.1929C67.2627 81.4208 68.2886 80.9952 69.0451 80.2376C69.8015 79.4801 70.2265 78.4526 70.2265 77.3812V61.2226C70.2051 60.2453 69.8328 59.3083 69.1778 58.5834Z" fill="white"/>
<path d="M35.2684 38.3313C45.6643 38.3313 54.0919 29.8911 54.0919 19.4797C54.0919 9.06821 45.6643 0.628052 35.2684 0.628052C24.8724 0.628052 16.4448 9.06821 16.4448 19.4797C16.4448 29.8911 24.8724 38.3313 35.2684 38.3313Z" fill="white"/>
</svg>
