<svg width="98" height="98" viewBox="0 0 98 98" fill="none" xmlns="http://www.w3.org/2000/svg">
<path d="M68.2091 28.249H30.1779C29.2232 28.249 28.4492 29.0241 28.4492 29.9803V68.0683C28.4492 69.0244 29.2232 69.7995 30.1779 69.7995H68.2091C69.1639 69.7995 69.9378 69.0244 69.9378 68.0683V29.9803C69.9378 29.0241 69.1639 28.249 68.2091 28.249Z" fill="white"/>
<path d="M94.1394 35.1741C95.0563 35.1741 95.9357 34.8093 96.5841 34.16C97.2325 33.5106 97.5968 32.6299 97.5968 31.7116C97.5968 30.7933 97.2325 29.9126 96.5841 29.2632C95.9357 28.6139 95.0563 28.2491 94.1394 28.2491H90.682V21.324C90.678 17.6519 89.2197 14.1314 86.627 11.5348C84.0343 8.9383 80.5191 7.4778 76.8525 7.47379H69.9377V4.01125C69.9377 3.09293 69.5734 2.21221 68.9251 1.56286C68.2767 0.913509 67.3973 0.548706 66.4803 0.548706C65.5634 0.548706 64.684 0.913509 64.0356 1.56286C63.3872 2.21221 63.0229 3.09293 63.0229 4.01125V7.47379H52.6508V4.01125C52.6508 3.09293 52.2865 2.21221 51.6381 1.56286C50.9898 0.913509 50.1104 0.548706 49.1934 0.548706C48.2764 0.548706 47.397 0.913509 46.7487 1.56286C46.1003 2.21221 45.736 3.09293 45.736 4.01125V7.47379H35.3639V4.01125C35.3639 3.09293 34.9996 2.21221 34.3512 1.56286C33.7028 0.913509 32.8234 0.548706 31.9065 0.548706C30.9895 0.548706 30.1101 0.913509 29.4617 1.56286C28.8134 2.21221 28.4491 3.09293 28.4491 4.01125V7.47379H21.5343C17.8677 7.4778 14.3525 8.9383 11.7598 11.5348C9.16713 14.1314 7.70881 17.6519 7.7048 21.324V28.2491H4.24742C3.33047 28.2491 2.45107 28.6139 1.80268 29.2632C1.1543 29.9126 0.790039 30.7933 0.790039 31.7116C0.790039 32.6299 1.1543 33.5106 1.80268 34.16C2.45107 34.8093 3.33047 35.1741 4.24742 35.1741H7.7048V45.5618H4.24742C3.33047 45.5618 2.45107 45.9266 1.80268 46.5759C1.1543 47.2253 0.790039 48.106 0.790039 49.0243C0.790039 49.9426 1.1543 50.8234 1.80268 51.4727C2.45107 52.1221 3.33047 52.4869 4.24742 52.4869H7.7048V62.8745H4.24742C3.33047 62.8745 2.45107 63.2393 1.80268 63.8886C1.1543 64.538 0.790039 65.4187 0.790039 66.337C0.790039 67.2554 1.1543 68.1361 1.80268 68.7854C2.45107 69.4348 3.33047 69.7996 4.24742 69.7996H7.7048V76.7247C7.70881 80.3967 9.16713 83.9172 11.7598 86.5138C14.3525 89.1103 17.8677 90.5708 21.5343 90.5748H28.4491V94.0374C28.4491 94.9557 28.8134 95.8364 29.4617 96.4858C30.1101 97.1351 30.9895 97.4999 31.9065 97.4999C32.8234 97.4999 33.7028 97.1351 34.3512 96.4858C34.9996 95.8364 35.3639 94.9557 35.3639 94.0374V90.5748H45.736V94.0374C45.736 94.9557 46.1003 95.8364 46.7487 96.4858C47.397 97.1351 48.2764 97.4999 49.1934 97.4999C50.1104 97.4999 50.9898 97.1351 51.6381 96.4858C52.2865 95.8364 52.6508 94.9557 52.6508 94.0374V90.5748H63.0229V94.0374C63.0229 94.9557 63.3872 95.8364 64.0356 96.4858C64.684 97.1351 65.5634 97.4999 66.4803 97.4999C67.3973 97.4999 68.2767 97.1351 68.9251 96.4858C69.5734 95.8364 69.9377 94.9557 69.9377 94.0374V90.5748H76.8525C80.5191 90.5708 84.0343 89.1103 86.627 86.5138C89.2197 83.9172 90.678 80.3967 90.682 76.7247V69.7996H94.1394C95.0563 69.7996 95.9357 69.4348 96.5841 68.7854C97.2325 68.1361 97.5968 67.2554 97.5968 66.337C97.5968 65.4187 97.2325 64.538 96.5841 63.8886C95.9357 63.2393 95.0563 62.8745 94.1394 62.8745H90.682V52.4869H94.1394C95.0563 52.4869 95.9357 52.1221 96.5841 51.4727C97.2325 50.8234 97.5968 49.9426 97.5968 49.0243C97.5968 48.106 97.2325 47.2253 96.5841 46.5759C95.9357 45.9266 95.0563 45.5618 94.1394 45.5618H90.682V35.1741H94.1394ZM76.8525 69.7996C76.8525 71.6362 76.1239 73.3976 74.8272 74.6964C73.5304 75.9951 71.7716 76.7247 69.9377 76.7247H28.4491C26.6152 76.7247 24.8564 75.9951 23.5596 74.6964C22.2629 73.3976 21.5343 71.6362 21.5343 69.7996V28.2491C21.5343 26.4124 22.2629 24.651 23.5596 23.3523C24.8564 22.0536 26.6152 21.324 28.4491 21.324H69.9377C71.7716 21.324 73.5304 22.0536 74.8272 23.3523C76.1239 24.651 76.8525 26.4124 76.8525 28.2491V69.7996Z" fill="white"/>
</svg>
