<svg width="98" height="98" viewBox="0 0 98 98" fill="none" xmlns="http://www.w3.org/2000/svg">
<path d="M26.0419 97.4998L0.327637 82.9184V53.7259L26.0419 39.1445L51.7562 53.7259V82.9184L26.0419 97.4998ZM6.37806 79.4665L26.0419 90.6852L45.7058 79.4665V57.1778L26.0419 46.0484L6.37806 57.1778V79.4665Z" fill="white"/>
<path d="M71.4203 97.4998L45.7061 82.9184V53.7259L71.4203 39.1445L97.1346 53.7259V82.9184L71.4203 97.4998ZM51.7565 79.4665L71.4203 90.6852L91.0842 79.4665V57.1778L71.4203 46.0484L51.7565 57.1778V79.4665Z" fill="white"/>
<path d="M48.7309 58.904L23.0166 44.3226V15.1301L48.7309 0.548706L74.4452 15.1301V44.3226L48.7309 58.904ZM29.067 40.8707L48.7309 52.0001L68.3948 40.8409V18.582L48.7309 7.36327L29.067 18.582V40.8707Z" fill="white"/>
</svg>
