<svg width="50" height="51" viewBox="0 0 50 51" fill="none" xmlns="http://www.w3.org/2000/svg">
<path fill-rule="evenodd" clip-rule="evenodd" d="M42.1717 1.67518C43.029 0.605963 44.1862 0.00421231 45.3933 2.20308e-05C46.6003 -0.00416825 47.7602 0.589539 48.6221 1.65279C49.484 2.71604 49.9788 4.1634 49.9993 5.68195C50.0199 7.20051 49.5647 8.66824 48.732 9.76783L24.2794 48.2272C23.8591 48.7967 23.3519 49.2538 22.788 49.571C22.2242 49.8883 21.6152 50.0593 20.9977 50.0736C20.3801 50.088 19.7666 49.9456 19.1938 49.6548C18.621 49.364 18.1006 48.9309 17.6639 48.3813L1.46219 27.9878C1.01083 27.4586 0.648801 26.8205 0.397708 26.1114C0.146615 25.4023 0.0115985 24.6369 0.000714958 23.8608C-0.0101686 23.0846 0.103304 22.3137 0.334361 21.5939C0.565418 20.8741 0.909327 20.2203 1.34557 19.6714C1.78182 19.1225 2.30146 18.6898 2.8735 18.399C3.44554 18.1083 4.05826 17.9655 4.67511 17.9792C5.29196 17.9929 5.90029 18.1628 6.46383 18.4787C7.02736 18.7947 7.53455 19.2502 7.95513 19.8181L20.7818 35.9495L42.0553 1.84474C42.0933 1.78504 42.1342 1.72841 42.1778 1.67518H42.1717Z" fill="white"/>
</svg>
